# xmcd
#
# Track frame offsets:
#	150
#	16828
#	34749
#	53754
#	74996
#	88817
#	107541
#	130375
#	147609
#	162656
#	181713
#
# Disc length: 2694 seconds
#
# Revision: 1
# Processed by: cddbd v1.5.2PL0 Copyright (c) Steve Scherf et al.
# Submitted via: EasyCDDAExtractor 5.0.6
#
DISCID=9f0a840b
DTITLE=Andy Collins - Lake St Serenade
DYEAR=1900
DGENRE=Blues
TTITLE0=Just Another Day
TTITLE1=Lake St Serenade
TTITLE2=Michael "Tarzan" Fomenko
TTITLE3=Bare Bellied Joe
TTITLE4=Two To The Valley
TTITLE5=Desire
TTITLE6=Blind Willie
TTITLE7=Well There You Are
TTITLE8=Rosie
TTITLE9=Some People
TTITLE10=Round The Country
EXTD=
EXTT0=
EXTT1=
EXTT2=
EXTT3=
EXTT4=
EXTT5=
EXTT6=
EXTT7=
EXTT8=
EXTT9=
EXTT10=
PLAYORDER=
